<svg id="Layer_1" data-name="Layer 1" xmlns="http://www.w3.org/2000/svg" viewBox="0 0 925.76 183.51"><title>nicolePaquet_logo_2018</title><path d="M231.43,169.53c-12.77,2.64-24.14,13.75-38.91,4.84-1.21-.73-4.14.47-5.77,1.54-8.79,5.81-17.88,9.47-28.76,6.74-2.21-.56-5.31.46-7.4,1.74-11.36,6.94-22.52,14.2-33.76,21.34-2.45,1.56-4.84,3.27-7.42,4.58-9.57,4.84-17.55,1-19.43-9.49-2.43-13.45.8-26.09,6.49-38.09,5.59-11.8,11.87-23.27,17.83-34.9,1.18-2.3,2.31-4.62,3.46-6.93l-1.47-1.12c-5.94,7-11.64,14.31-17.88,21.08-13.75,14.93-27.61,29.78-41.88,44.2-2.15,2.18-6.76,1.93-10.23,2.8-0.4-3.42-2.18-7.44-1-10.16,5.74-13,12-25.8,18.64-38.4,4.34-8.29,9.55-16.13,13.16-25.18-6.29,6.05-12.06,12.8-19,18C44.67,142.29,30.83,152,16.58,161c-6,3.78-13.11,1.37-15.46-3.14-2.63-5.06-.44-14,4.44-18a2.62,2.62,0,0,1,.58,1.18c-1.1,5.34-2.5,12.2,3,14.29,3.88,1.48,10.35-1.09,14.55-3.66,26.75-16.34,47.81-38.4,63.77-65.38,3.45-5.83,7-11.62,10.88-17.17,1.11-1.59,3.55-2.25,5.38-3.34,0.82,2.45,2.93,5.37,2.24,7.27-3.22,8.87-6.5,17.85-11.08,26.06-9.42,16.88-19.94,33.14-29.49,50-4.8,8.44-8.47,17.52-12.65,26.31l2.47,1.77c1.74-1.3,3.77-2.34,5.18-3.93,14.91-16.86,30.33-33.32,44.41-50.85,21.65-26.94,42.31-54.67,63.59-81.9,1.33-1.7,4.45-2,6.74-3,0,2.58.93,5.78-.24,7.65C162.75,64.64,150,83.77,138,103.29c-13.22,21.38-28.42,41.79-36.23,66-2.9,9-4.16,18.75-4.68,28.23-0.37,6.84,4.22,8.92,10.3,5.61,13.18-7.16,26.31-14.44,39.26-22a8.18,8.18,0,0,0,3.44-6.23c-0.66-10.41,4-18.77,9.37-26.94,3.59-5.45,7-11.08,11.18-16.06,1.48-1.76,5-1.81,7.59-2.63,0.34,2.53,1.87,5.82.82,7.46-4,6.25-5.09,14.8-13.89,17.6-1.91.61-3.4,4.15-4.09,6.61-1.17,4.16-1.54,8.54-2.25,12.83,4.81,0.23,10.13,1.9,14.34.42,15.22-5.34,24.75-17.08,31.47-31.27,2.22-4.69,18.38-14.68,23.31-13.32,2.07,0.57,4.76,3.61,4.9,5.67,0.78,11.53-8.14,18.88-19.46,16.91a6.3,6.3,0,0,0-4.78,1.81,25,25,0,0,0-4.88,7.17c-1,2.26-.94,5-1.35,7.47,2.28,0.29,4.62,1.05,6.84.78,5.52-.68,11-1.93,16.48-2.72,1.85-.26,3.8.18,5.71,0.3Z" transform="translate(0 -33.21)"/><path d="M760.63,169c-18.42,11.59-36.87,21.61-57.83,25.77-3.69.73-7.67,0.32-11.48,0-1.54-.13-4.21-1.34-4.27-2.21-0.64-9-14.61-12.85-8.78-23.37-11.08,5.6-21.83,11.27-32.81,16.46a36.18,36.18,0,0,1-11.22,2.76c-12,1.37-18.57-6.07-12.22-16,8.08-12.63,19.35-23.23,29.55-34.43,0.62-.68,5.47.76,5.67,1.75,0.45,2.28.06,5.66-1.43,7.22-6.33,6.63-13.5,12.47-19.73,19.18-3.1,3.34-4.82,7.94-7.93,13.29,12,1.43,20.39-3,28.54-7.27,10.42-5.49,19.12-13.05,24.81-23.79,0.89-1.68,4.09-2.13,6.23-3.15,0.49,2.48,1.84,5.17,1.31,7.41-1.27,5.38-3.74,10.47-5.05,15.85-0.52,2.12.76,4.68,1.22,7,2.39-.71,5.27-0.8,7.09-2.24,10.09-7.92,19.8-16.34,29.93-24.21a24.48,24.48,0,0,1,10.34-4.69c2.61-.46,6.52.54,8.16,2.38,1.27,1.43.63,5.51-.41,7.86-7.08,16-20.16,24.18-36.82,27.51-3.11.62-6.12,1.7-9.18,2.56l0.18,2.17c1.64,0.21,3.33.81,4.9,0.57,25.16-4,47.44-14.77,68.14-29.18a6.41,6.41,0,0,0,1.61-1.47c12.09-17.17,24.15-34.37,37.64-53.59-8.54.95-15,1.88-21.54,2.32-4.36.29-10.83,3.73-11.87-3.63-1.06-7.53,5.81-7,10.71-7.35,8.22-.63,16.51-0.55,24.67-1.55a13.94,13.94,0,0,0,8-4.69c4.06-4.77,7-10.47,11.13-15.18,1.71-2,5.19-2.4,7.87-3.53,0,3.16.86,6.75-.34,9.37-1.67,3.63-5,6.45-7.43,9.78-0.75,1-.8,2.59-1.61,5.44,19.48,0,38.07-.25,56.65.09,11.85,0.22,23.69,1.29,35.53,2a5.43,5.43,0,0,1,2.79.69,55.85,55.85,0,0,1,4.39,4c-1.77.78-3.52,2.21-5.3,2.24-11.63.2-23.28,0.14-34.91,0.08-18.17-.08-36.4.65-54.48-0.67-11.44-.83-17.66,4.21-23.86,12.46-9.92,13.18-16.56,28.37-28,40.82-7.66,8.33-13.73,19.39-14.32,32-0.08,1.79-2.42,3.47-3.71,5.2-1.44-1.9-4.24-3.92-4.07-5.67C757.66,181.49,759.26,175.67,760.63,169ZM728,158.55l-1.32-1.8-19.35,14.16,1.34,1.82C716.9,170.41,723.78,166.28,728,158.55Z" transform="translate(0 -33.21)"/><path d="M487.72,121.38c-5.6-5.13-9.12-2.89-12,.91q-23.61,31.65-47,63.45c-0.71,1-.89,2.4-1.73,3.17-1.94,1.78-4.12,3.29-6.21,4.91-0.73-2.51-2.5-5.25-2-7.49,1.93-8.73,4.45-17.35,7-25.93s5.35-16.91,8-25.37l-1.68-1.63c-4.57,2.27-9.07,4.71-13.74,6.75-1.85.81-4.08,0.74-6.14,1.08,0.75-2.12.88-5.12,2.38-6.19a100.26,100.26,0,0,1,15.54-9.21,17.86,17.86,0,0,0,9.91-10.51c7-17.51,14-35.09,22.42-51.9,12.41-24.64,37-34.92,63.62-28.16,15,3.8,20.12,14.43,14.05,28.69-6.31,14.83-18.41,24-31.37,32.31a82.44,82.44,0,0,1-7.53,4.39C493.16,104.74,484.55,108.42,487.72,121.38Zm-42.53-4.05c2.42-.17,3.47,0,4.21-0.34,20.39-10.42,41.06-20.37,61-31.61,9.85-5.55,18.43-13.42,22.51-24.76,2.61-7.26.72-14.1-5.65-15.79-16.48-4.36-33-4.25-46.71,7.36C466.36,64.21,459,81,452.24,97.92,449.8,104,447.73,110.3,445.19,117.32Zm20.18,4.38-1.28-1.47c-7.75,5.34-19.86,3.49-23.87,14.82-3.29,9.31-5.88,18.87-8.77,28.33l2,0.88Z" transform="translate(0 -33.21)"/><path d="M291.45,144.45c-5.3-1.79-5.78,2.66-7.27,6.52-5.3,13.82-13.79,24.86-28.2,30.17a19.23,19.23,0,0,1-7.83,1.05c-10.61-.78-14.56-7.77-10.65-17.69,4.21-10.66,12.88-17.33,21-24.6a31.69,31.69,0,0,0,5.34-5.78c4.16-6.26,10.69-7.15,16.35-2,7.3,6.67,18.51,5.4,24.78-2.22,14.44-17.55,29.14-34.89,43.81-52.25a14.21,14.21,0,0,1,5-4c1.63-.68,4.46-1,5.43-0.06,1.19,1.13,2,4.17,1.27,5.61C351.1,99.06,340.38,118,322,131.16c-4.8,3.43-11.06,4.91-15.61,8.57-7.39,6-11.09,14.53-13,23.76-1.81,8.78-.07,13.35,5.58,15.3,6,2.07,14.57-1.72,17.77-7.81,5.31-10.11,12.29-18.77,23.06-23.2,3-1.25,8.41-1.39,10.45.45,3.79,3.43,0,6.72-2.83,9.54-7.49,7.49-13.82,16.81-22.58,22.18-8.44,5.16-19,9.56-29.73,5.33-6.54-2.58-10.9-7.95-9.68-15.4C286.86,161.44,289.35,153.17,291.45,144.45Zm-41,30.88c11.55-2.13,19.2-9.89,24.91-19.88,1.2-2.09,2-6.74,1.23-7.18-2.47-1.42-6.32-2.75-8.62-1.75a44,44,0,0,0-22.78,21.36C243,172.24,245.27,174.74,250.41,175.33Zm71.5-55.2,2.24,2.14,19-22.79-2.27-1.93Z" transform="translate(0 -33.21)"/><path d="M551.15,172.64a49.41,49.41,0,0,0,32.17-11.29c7.11-5.7,12.8-13.14,19.52-19.39,1.59-1.48,4.73-1.27,7.16-1.84,0.07,2.69,1.28,6.3,0,7.92-4.34,5.47-9.73,10.09-14.42,15.3-11.13,12.36-22.21,24.77-33,37.42-2.06,2.41-2.68,6-4.06,9-0.69,1.51-1.24,3.42-2.47,4.26-1.87,1.29-4.26,1.81-6.43,2.66-0.44-2.35-2-5.27-1.13-7,4-8,8.69-15.59,13.21-23.29,1.17-2,2.67-3.78,5.44-7.63-6.34.79-10.55,2-14.6,1.61-3.54-.36-8.59-1.71-9.87-4.21-1.49-2.91-.94-8.5,1-11.27,8.63-12.09,19.27-22.3,33-28.52a36.5,36.5,0,0,1,11.88-2.82c5.22-.43,7.48,2.74,6.89,7.81-0.63,5.43-3.55,4.71-7.1,2.61a4,4,0,0,0-2.81,0,62.22,62.22,0,0,0-34.71,25.73C550.69,170.11,551,170.73,551.15,172.64Z" transform="translate(0 -33.21)"/><path d="M504.24,183.34l10.23,1.16c-3.74,4.67-7.59,5.38-12.31,4.77a88.79,88.79,0,0,0-12.43-.28c-6.43.08-13.2,1.67-19.21,0.16-9.68-2.43-13-10.92-7.4-19.17,11.91-17.53,28.47-28.89,49.77-31.83,9.23-1.27,15,5,11.86,13.69-3.29,9-9.15,17.17-14.13,25.55C509.53,179.23,507.38,180.47,504.24,183.34Zm10.92-35.63c-4.38.63-8.86,0.12-12,1.93-10.16,5.86-20.37,11.91-29.5,19.21-5.67,4.53-4.85,11.28-.31,13.5,5.61,2.74,20.05-.33,23.56-5.58C503,167.64,508.61,158.2,515.16,147.71Z" transform="translate(0 -33.21)"/></svg>